<?xml version="1.0" standalone="no"?>
<!DOCTYPE svg PUBLIC "-//W3C//DTD SVG 20010904//EN"
 "http://www.w3.org/TR/2001/REC-SVG-20010904/DTD/svg10.dtd">
<svg version="1.0" xmlns="http://www.w3.org/2000/svg"
 width="260.000000pt" height="260.000000pt" viewBox="0 0 260.000000 260.000000"
 preserveAspectRatio="xMidYMid meet">
<metadata>
Created by potrace 1.14, written by Peter Selinger 2001-2017
</metadata>
<g transform="translate(0.000000,260.000000) scale(0.100000,-0.100000)"
fill="#000000" stroke="none">
<path d="M0 1300 l0 -1300 1300 0 1300 0 0 1300 0 1300 -1300 0 -1300 0 0
-1300z m1351 718 c175 -166 319 -305 319 -310 0 -4 -13 -8 -29 -8 -50 0 -203
-50 -281 -92 -152 -81 -276 -209 -340 -351 -25 -56 -54 -172 -62 -249 -3 -24
-30 -3 -341 270 -320 281 -337 297 -310 303 286 64 411 130 546 287 95 110
167 289 167 417 0 19 2 35 6 35 3 0 149 -136 325 -302z m-640 -65 c49 -48 89
-91 89 -95 0 -10 -71 -78 -81 -78 -11 0 -179 161 -179 172 0 13 63 88 74 88 5
0 48 -39 97 -87z m1081 -1039 c315 -304 579 -559 586 -567 11 -13 9 -22 -10
-56 -13 -23 -26 -41 -30 -41 -4 0 -277 255 -607 567 l-599 566 36 43 c20 24
40 42 44 41 3 -1 264 -250 580 -553z"/>
</g>
</svg>
